<svg width="37" height="37" fill="none" xmlns="http://www.w3.org/2000/svg"><g clip-path="url(#clip0_113_269)"><path d="M37 18.5a18.5 18.5 0 11-37 0 18.5 18.5 0 0137 0z" fill="url(#paint0_linear_113_269)"/><path d="M15.108 26.979c-.601 0-.493-.231-.71-.802l-1.756-5.796 10.915-6.814 1.28.339-1.065 2.898-8.664 10.175z" fill="#C8DAEA"/><path d="M15.108 26.979a1.204 1.204 0 00.925-.463c.401-.385 5.55-5.395 5.55-5.395l-3.16-.771-2.929 1.85-.386 4.625v.154z" fill="#A9C9DD"/><path d="M15.417 22.262l7.46 5.503c.848.463 1.465.232 1.68-.786l3.038-14.306c.309-1.25-.477-1.804-1.295-1.434L8.48 18.115c-1.219.493-1.203 1.172-.217 1.464l4.58 1.434 10.591-6.676c.494-.308.956-.138.586.2l-8.603 7.725z" fill="url(#paint1_linear_113_269)"/></g><defs><linearGradient id="paint0_linear_113_269" x1="-105.339" y1="82.473" x2="-106.893" y2="78.847" gradientUnits="userSpaceOnUse"><stop stop-color="#37AEE2"/><stop offset="1" stop-color="#1E96C8"/></linearGradient><linearGradient id="paint1_linear_113_269" x1="19.877" y1="18.227" x2="22.779" y2="11.647" gradientUnits="userSpaceOnUse"><stop stop-color="#EFF7FC"/><stop offset="1" stop-color="#fff"/></linearGradient><clipPath id="clip0_113_269"><path fill="#fff" d="M0 0h37v37H0z"/></clipPath></defs></svg>